<?xml version="1.0" encoding="utf-8"?>
<!-- Generator: Adobe Illustrator 16.0.0, SVG Export Plug-In . SVG Version: 6.00 Build 0)  -->
<!DOCTYPE svg PUBLIC "-//W3C//DTD SVG 1.1//EN" "http://www.w3.org/Graphics/SVG/1.1/DTD/svg11.dtd">
<svg version="1.1" id="Layer_1" xmlns="http://www.w3.org/2000/svg" xmlns:xlink="http://www.w3.org/1999/xlink" x="0px" y="0px"
	 width="1920px" height="1080px" viewBox="0 0 1920 1080" enable-background="new 0 0 1920 1080" xml:space="preserve">
<g>
	<rect x="95.883" y="384.312" fill="none" width="1741.123" height="302.834"/>
	<text transform="matrix(1 0 0 1 95.8828 647.6348)"><tspan x="0" y="0" font-family="'ComingSoon'" font-size="340.6537">    </tspan><tspan x="452.432" y="0" font-family="'Satisfy'" font-size="315.4201">obsforhosh</tspan></text>
	<g>
		<path d="M92.819,491.655l21.245,44.178c17.859,37.118,57.413,59.646,98.432,56.058c0,0,0,0,0.009,0
			c6.037-0.529,11.976-1.64,17.784-3.258c-2.72,15.837-12.736,48.862-27.62,54.778c-4.523,1.799-7.5,6.178-7.5,11.047
			c-0.009,4.869,2.955,9.252,7.485,11.058c8.665,3.466,17.516,4.833,26.315,4.065c25.171-2.204,44.052-21.32,54.681-35.315
			c3.698,2.86,7.183,5.411,10.254,7.471c2.269,13.529,2.673,21.598,2.437,26.372c-3.925-1.551-8.196-2.218-12.495-1.842
			c-15.197,1.331-26.479,14.781-25.149,29.985l3.142,35.914c1.33,15.202,14.777,26.482,29.974,25.151
			c9.949-0.868,18.415-7.012,22.547-15.631c65.854-15.364,93.281-81.595,93.049-114.711c1.071-1.035,2.165-2.143,3.26-3.274
			c12.953,11.863,34.602,26.959,59.433,24.786c0.009,0,0.005,0,0.013,0c8.795-0.774,17.276-3.653,25.206-8.572
			c4.145-2.56,6.301-7.393,5.454-12.188c-0.852-4.795-4.535-8.59-9.309-9.578c-16.009-3.313-31.83-35.043-36.981-49.892
			c-0.08-0.236-0.215-0.437-0.311-0.666c8.147,1.335,16.389,1.72,24.63,0.999c41.023-3.59,76.068-32.644,87.204-72.299
			l13.257-47.194c7.186-25.606,3.976-52.482-9.047-75.674c-13.027-23.19-34.303-39.924-59.913-47.117
			c-11.647-3.272-23.622-4.398-35.58-3.353c-28.122,2.46-53.395,16.924-70.112,38.54c-23.608-15.796-52.522-23.989-82.96-21.326
			c-28.877,2.527-54.72,14.42-74.807,32.419c-19.917-16.801-46.119-25.662-72.968-23.312c-11.961,1.047-23.556,4.235-34.46,9.481
			C89.932,382.553,69.031,442.169,92.819,491.655z M476.731,544.887c-5.255,0.459-10.517,0.295-15.737-0.347
			c6.506-22.079,1.241-80.387,0.613-87.015c-2.797-31.975-17.135-60.22-38.519-81.051c12.722-16.712,32.106-27.922,53.712-29.812
			c9.089-0.795,18.195,0.066,27.072,2.557c19.487,5.472,35.679,18.204,45.593,35.854c9.91,17.653,12.356,38.104,6.889,57.588
			l-13.257,47.197C534.622,520.037,507.952,542.151,476.731,544.887z M426.282,605.701c3.912-4.993,7.763-10.276,11.427-15.704
			c4.644,10.116,11.967,23.642,21.853,34.424C446.4,622.246,434.243,613.094,426.282,605.701z M241.297,555.22
			c-6.202-12.037-11.5-53.662-13.376-77.071c-5.073-57.982,37.908-109.204,95.804-114.267
			c57.891-5.065,109.112,37.913,114.178,95.805c2.217,23.475,4.23,65.397,0.214,78.314c-7.451,23.977-32.974,59.463-50.818,75.183
			c-3.031,2.672-4.503,6.692-3.902,10.69c2.462,16.462-16.61,85.079-80.297,95.816c-5.266,0.887-9.298,5.178-9.852,10.492
			c-0.166,1.562-1.419,3.249-3.501,3.431c-2.122,0.188-4.005-1.391-4.19-3.516l-3.143-35.917c-0.187-2.134,1.394-4.014,3.516-4.203
			c1.928-0.166,3.057,1.108,3.457,1.662c2.446,3.433,6.526,5.319,10.73,4.95c5.568-0.486,10.534-3.242,13.974-7.76
			c8.995-11.82,6.439-34.122,2.339-56.465c-0.624-3.384-2.677-6.332-5.638-8.088C293.649,614.127,253.467,578.818,241.297,555.22z
			 M235.183,644.066c8.124-12.734,13.048-27.894,15.83-38.748c4.715,4.752,9.566,9.364,14.375,13.682
			C258.906,627.784,248.282,639.504,235.183,644.066z M149.728,380.2c8.315-3.998,17.13-6.425,26.221-7.222
			c20.062-1.756,39.623,4.745,54.67,17.093c-19.102,24.784-29.351,56.5-26.414,90.058c0.529,6.601,5.538,65.807,15.937,85.988
			c0.077,0.148,0.177,0.302,0.253,0.45c-3.274,0.757-6.589,1.319-9.955,1.611c-31.224,2.733-61.329-14.413-74.921-42.665
			l-21.245-44.174C96.164,443.684,112.075,398.314,149.728,380.2z"/>
		<circle cx="403.724" cy="504.104" r="20.149"/>
		<circle cx="269.298" cy="515.864" r="20.15"/>
	</g>
</g>
</svg>
