<?xml version="1.0" encoding="utf-8"?>
<!-- Generator: Adobe Illustrator 16.0.0, SVG Export Plug-In . SVG Version: 6.00 Build 0)  -->
<!DOCTYPE svg PUBLIC "-//W3C//DTD SVG 1.1//EN" "http://www.w3.org/Graphics/SVG/1.1/DTD/svg11.dtd">
<svg version="1.1" id="Layer_1" xmlns="http://www.w3.org/2000/svg" xmlns:xlink="http://www.w3.org/1999/xlink" x="0px" y="0px"
	 width="1920px" height="1080px" viewBox="0 0 1920 1080" enable-background="new 0 0 1920 1080" xml:space="preserve">
<g>
	<g>
		<path d="M622.22,582.681c-2.227,8.459-5.231,16.355-9.012,23.698c-3.786,7.344-8.292,13.686-13.519,19.026
			c-5.231,5.341-11.13,9.513-17.691,12.518c-6.566,3.004-13.743,4.506-21.529,4.506c-9.127,0-16.304-1.95-21.529-5.841
			c-5.231-3.892-9.127-8.731-11.683-14.521c-2.561-5.784-4.115-12.126-4.673-19.026c-0.553-6.895-0.834-13.352-0.834-19.359
			c0-4.225,0.5-8.897,1.502-14.02c1.001-5.116,2.389-10.348,4.172-15.688c1.779-5.341,4.058-10.682,6.843-16.022
			c2.78-5.341,6.061-10.232,9.847-14.687c1.335-3.781,3.39-7.119,6.175-10.014c2.78-2.89,6.008-5.283,9.68-7.177
			c3.671-1.888,7.62-3.338,11.849-4.339c4.225-1.001,8.345-1.502,12.351-1.502c0.667,0,1.278,0.115,1.836,0.334
			c0.553,0.224,1.168,0.448,1.835,0.667c2.89,0.224,6.509,1.335,10.848,3.338c4.339,2.003,8.564,5.007,12.684,9.012
			c4.115,4.005,7.62,9.07,10.515,15.188c2.889,6.123,4.339,13.519,4.339,22.196c0,1.784-0.115,3.954-0.334,6.51
			c-0.224,2.561-0.448,4.73-0.667,6.509c5.116-2.003,10.457-4.449,16.022-7.344c5.56-2.89,10.958-5.951,16.189-9.179
			c5.226-3.224,10.066-6.51,14.52-9.848c4.449-3.338,8.011-6.342,10.682-9.012c2.222-2.003,4.115-3.114,5.674-3.338
			c1.554-0.22,2.67,0.224,3.338,1.335c0.667,1.116,0.777,2.67,0.334,4.673c-0.449,2.003-1.669,4.229-3.672,6.676
			c-1.116,1.335-3.954,4.006-8.512,8.011c-4.563,4.006-9.961,8.345-16.189,13.019c-6.232,4.673-13.018,9.236-20.361,13.686
			C635.905,577.12,628.896,580.458,622.22,582.681z M544.447,590.691c0,4.005,0.219,7.959,0.667,11.85
			c0.443,3.896,1.335,7.343,2.67,10.348c1.335,3.004,3.114,5.455,5.341,7.343c2.222,1.894,5.116,2.838,8.678,2.838
			c4.006,0,7.677-0.944,11.015-2.838c3.338-1.888,6.342-4.339,9.013-7.343c2.67-3.005,5.059-6.452,7.176-10.348
			c2.112-3.891,3.948-7.954,5.507-12.184c-1.559,0.225-3.061,0.392-4.506,0.501c-1.45,0.114-3.062,0.167-4.84,0.167
			c-8.46,0-15.746-2.504-21.863-7.511c-6.123-5.007-10.849-11.401-14.187-19.193c-1.335,4.674-2.451,9.237-3.338,13.686
			C544.89,582.461,544.447,586.686,544.447,590.691z M565.81,531.944c-0.668,2.003-1.001,4.12-1.001,6.342
			c0,3.562,0.219,7.291,0.667,11.182c0.443,3.896,1.554,7.401,3.338,10.515c1.778,3.119,4.616,5.731,8.512,7.844
			c3.891,2.118,9.289,3.172,16.189,3.172c1.111,0,2.222-0.053,3.338-0.167c1.111-0.11,2.222-0.276,3.338-0.501
			c0.667-2.89,1.278-5.508,1.835-7.844c0.553-2.337,0.835-4.392,0.835-6.176c0.443-4.225,0.443-8.563,0-13.018
			c-0.449-4.449-1.283-8.512-2.504-12.184c-1.226-3.672-2.785-6.676-4.673-9.012c-1.893-2.337-4.172-3.505-6.843-3.505
			c-4.229,0-8.292,1.168-12.183,3.505C572.762,524.434,569.147,527.72,565.81,531.944z"/>
		<path d="M734.374,444.491c-3.338,13.352-7.067,26.093-11.182,38.219c-4.12,12.131-8.345,23.48-12.684,34.047
			c-4.339,10.571-8.678,20.194-13.018,28.873c-4.339,8.678-8.178,16.246-11.516,22.697c-2.227,16.022-2.227,28.931,0,38.72
			c2.222,9.795,6.561,14.687,13.018,14.687c5.341,0,10.566-2.445,15.688-7.343c5.116-4.893,9.68-10.9,13.685-18.025
			c4.005-7.119,7.396-14.738,10.181-22.864c2.78-8.12,4.506-15.406,5.174-21.863c-4.23-1.111-7.792-3.057-10.681-5.842
			c-2.895-2.779-4.339-6.509-4.339-11.182c0-3.113,0.887-6.061,2.67-8.846c1.778-2.779,3.891-5.174,6.342-7.176
			c2.446-2.003,5.116-3.557,8.011-4.673c2.889-1.111,5.56-1.669,8.011-1.669c3.781,0,7.01,2.394,9.68,7.176
			c2.67,4.788,4.449,10.849,5.34,18.191c8.897-0.219,18.244-1.554,28.039-4.005c9.79-2.446,19.026-5.56,27.705-9.347
			c2.446-1.11,4.449-1.444,6.008-1.001c1.554,0.448,2.613,1.335,3.171,2.67c0.553,1.336,0.5,2.838-0.167,4.507
			s-2.002,2.951-4.005,3.838c-5.122,2.895-10.405,5.508-15.855,7.845c-5.456,2.336-10.848,4.287-16.189,5.841
			c-5.341,1.56-10.462,2.785-15.354,3.672c-4.897,0.892-9.346,1.335-13.352,1.335c-0.892,8.903-3.671,18.525-8.345,28.873
			c-4.673,10.348-10.348,19.918-17.023,28.706c-6.676,8.793-14.076,16.079-22.197,21.863c-8.126,5.784-16.08,8.679-23.866,8.679
			c-2.451,0-5.674-0.334-9.68-1.002c-4.006-0.667-7.902-3.004-11.683-7.009c-3.787-4.006-7.01-10.4-9.68-19.193
			c-2.67-8.788-3.787-21.306-3.338-37.552c0.219-10.9,1.445-22.474,3.672-34.714c2.222-12.235,4.892-24.477,8.011-36.717
			c3.114-12.236,6.619-24.085,10.515-35.549c3.891-11.458,7.62-21.806,11.182-31.042c3.557-9.231,6.843-16.966,9.847-23.199
			c3.004-6.227,5.283-10.232,6.842-12.016c2.003-2.446,4.339-4.282,7.01-5.508c2.67-1.22,5.283-2.112,7.844-2.67
			c2.556-0.553,4.949-0.72,7.176-0.5c2.222,0.224,3.781,0.558,4.673,1.001c1.335,0.892,1.721,5.789,1.168,14.687
			C740.324,419.013,738.155,430.472,734.374,444.491z"/>
		<path d="M846.861,624.404c1.335,0.892,3.056,1.335,5.174,1.335c2.112,0,4.225-0.443,6.342-1.335
			c2.112-0.887,4.115-2.112,6.008-3.672c1.888-1.555,3.281-3.557,4.172-6.008c0.887-2.446,0.887-5.951,0-10.515
			c-0.892-4.559-2.284-9.456-4.172-14.688c-1.893-5.226-3.953-10.514-6.175-15.854c-2.227-5.341-4.121-10.232-5.675-14.687
			c-1.335-3.338-2.451-6.452-3.338-9.347c-0.892-2.446-1.726-4.84-2.503-7.177c-0.782-2.336-1.393-3.947-1.836-4.84
			c-1.116,1.784-3.062,4.674-5.841,8.679c-2.785,4.006-5.789,8.178-9.012,12.518c-3.229,4.339-6.29,8.345-9.179,12.017
			c-2.895,3.671-4.897,6.175-6.008,7.51c-1.784,2.003-3.505,3.171-5.174,3.505s-3.062,0-4.172-1.001
			c-1.116-1.002-1.726-2.446-1.836-4.34c-0.115-1.888,0.72-4.172,2.503-6.843c1.335-1.778,3.338-4.615,6.008-8.512
			c2.67-3.891,5.341-7.896,8.011-12.016c2.67-4.115,5.116-7.787,7.343-11.016c2.222-3.223,3.447-5.174,3.672-5.841
			c0.443-1.779-0.167-4.115-1.836-7.01c-1.669-2.89-1.951-6.228-0.834-10.014c0.887-3.113,2.889-6.728,6.008-10.848
			c3.113-4.115,6.785-7.844,11.015-11.182c4.224-3.338,8.563-5.842,13.018-7.511c4.449-1.669,8.454-1.611,12.017,0.167
			c2.889,1.784,5.226,3.729,7.009,5.841c1.779,2.118,2.446,4.287,2.003,6.509c-0.448,1.116-1.116,2.561-2.003,4.339
			c-0.892,1.784-2.227,3.954-4.005,6.509c-1.784,2.561-4.339,5.841-7.677,9.846c0.668,5.122,1.612,9.795,2.837,14.02
			c1.22,4.229,2.389,7.901,3.505,11.016c1.335,3.786,2.78,7.233,4.339,10.347c2.002,4.006,4.115,8.126,6.342,12.351
			c2.222,4.229,4.225,8.402,6.008,12.518c1.778,4.12,3.223,7.958,4.339,11.516c1.111,3.562,1.445,6.566,1.001,9.012
			c-0.668,3.787-2.618,8.345-5.841,13.686c-3.229,5.341-7.234,10.515-12.017,15.521c-4.788,5.007-10.238,9.289-16.356,12.851
			c-6.123,3.558-12.517,5.341-19.193,5.341c-4.673,0-9.179-1.449-13.519-4.339c-4.339-2.895-8.011-6.29-11.015-10.181
			c-3.004-3.891-5.231-7.729-6.676-11.516c-1.45-3.781-1.617-6.676-0.5-8.679c1.335-2.671,2.556-4.782,3.672-6.342
			c1.111-1.555,2.78-3.338,5.007-5.341c0.886-0.668,2.002-1.445,3.338-2.337c1.111-0.667,2.67-1.335,4.673-2.003
			c2.003-0.667,4.339-1.444,7.01-2.336c2.222,6.899,4.225,12.298,6.008,16.188c1.778,3.896,3.223,6.958,4.339,9.18
			C844.524,621.849,845.745,623.518,846.861,624.404z"/>
		<path d="M926.637,601.039c-2.451-2.446-4.172-4.84-5.174-7.177s-1.721-4.616-2.169-6.843c-0.443-2.446-0.443-4.893,0-7.344
			c0.887-3.113,2.222-6.008,4.005-8.678c1.554-2.446,3.672-4.95,6.342-7.511c2.67-2.556,6.228-4.949,10.682-7.177
			c2.889-7.119,5.507-14.629,7.844-22.53c2.337-7.896,4.392-15.073,6.175-21.53c2.003-7.562,3.781-15.13,5.341-22.698
			c5.56-18.911,8.455-34.323,8.677-46.23c0.221-11.902,0-19.746-0.666-23.532c-0.225-1.554-0.449-3.114-0.668-4.673
			c-0.449-1.335-0.834-2.837-1.168-4.506s-0.727-3.281-1.17-4.84c2.447-1.335,4.617-2.446,6.51-3.338
			c1.889-0.887,3.504-1.555,4.84-2.003c1.555-0.667,3.004-1.111,4.34-1.335c5.115-1.111,9.955-1.721,14.52-1.836
			c4.559-0.11,7.062,0.725,7.51,2.503c0.219,1.116,0.502,3.119,0.834,6.008c0.334,2.895,0.502,6.457,0.502,10.681
			c0,4.229-0.334,8.96-1.002,14.186c-0.668,5.231-1.893,10.739-3.672,16.522c-1.559,5.122-3.672,12.241-6.342,21.363
			c-2.451,7.792-5.674,18.191-9.68,31.209c-4.006,13.018-9.236,29.655-15.688,49.901c6.676-2.222,14.018-4.339,22.029-6.342
			s16.189-3.672,24.533-5.007c8.346-1.335,16.689-2.337,25.035-3.004c8.344-0.668,16.074-0.777,23.197-0.334
			c1.336,0,2.279,0.615,2.838,1.836c0.553,1.226,0.553,2.503,0,3.839c-0.559,1.335-1.783,2.618-3.672,3.838
			c-1.893,1.226-4.621,1.951-8.178,2.17c-4.453,0.448-9.346,0.949-14.686,1.502c-5.342,0.559-10.85,1.335-16.523,2.337
			c-5.674,1.001-11.297,2.227-16.857,3.672c-5.564,1.449-10.795,3.171-15.688,5.173c-3.787,1.336-7.568,2.671-11.35,4.006
			c-3.117,1.116-6.398,2.394-9.846,3.839c-3.453,1.449-6.29,2.728-8.511,3.839l-7.677,24.366
			c12.903,9.127,22.864,18.474,29.874,28.038c7.01,9.57,12.068,18.358,15.188,26.37c3.781,9.346,5.893,18.468,6.342,27.37
			c0,9.79-1.449,19.637-4.34,29.541c-2.895,9.898-6.732,19.359-11.516,28.372c-4.787,9.013-10.348,17.409-16.689,25.201
			c-6.342,7.787-13.017,14.463-20.027,20.027c-7.009,5.56-14.134,9.789-21.362,12.684c-7.234,2.89-14.071,4.006-20.528,3.339
			c-4.673-0.449-8.564-1.951-11.683-4.507c-3.114-2.561-5.45-5.789-7.01-9.68c-1.554-3.896-2.446-8.235-2.67-13.018
			c-0.219-4.788,0.224-9.514,1.335-14.187c0.892-4.673,2.785-13.352,5.674-26.035c2.451-10.682,6.232-26.203,11.349-46.564
			C911.063,661.955,917.958,634.866,926.637,601.039z M946.331,616.727c-3.119,11.13-5.841,21.363-8.178,30.709
			c-2.336,9.346-4.287,17.576-5.841,24.7c-2.002,8.23-3.562,15.688-4.673,22.364c-2.003,8.454-4.063,16.799-6.175,25.034
			c-2.112,8.23-3.781,15.631-5.007,22.197c-1.22,6.562-1.721,11.85-1.502,15.855c0.224,4.005,1.669,6.008,4.339,6.008
			c6.452,0.443,13.185-2.061,20.194-7.511c7.009-5.455,13.404-12.35,19.193-20.694c5.784-8.345,10.565-17.357,14.353-27.037
			c3.781-9.68,5.674-18.641,5.674-26.87c0-9.127-1.449-18.14-4.338-27.037c-2.004-4.673-4.34-9.236-7.01-13.686
			c-2.451-3.786-5.398-7.844-8.846-12.184C955.061,624.237,951.003,620.289,946.331,616.727z"/>
		<path d="M1129.914,582.681c-2.227,8.459-5.23,16.355-9.012,23.698c-3.787,7.344-8.293,13.686-13.519,19.026
			c-5.231,5.341-11.13,9.513-17.691,12.518c-6.566,3.004-13.742,4.506-21.529,4.506c-9.127,0-16.304-1.95-21.529-5.841
			c-5.231-3.892-9.127-8.731-11.683-14.521c-2.562-5.784-4.115-12.126-4.674-19.026c-0.553-6.895-0.834-13.352-0.834-19.359
			c0-4.225,0.501-8.897,1.502-14.02c1.002-5.116,2.389-10.348,4.173-15.688c1.778-5.341,4.058-10.682,6.843-16.022
			c2.779-5.341,6.06-10.232,9.847-14.687c1.335-3.781,3.39-7.119,6.175-10.014c2.78-2.89,6.008-5.283,9.68-7.177
			c3.672-1.888,7.62-3.338,11.85-4.339c4.225-1.001,8.345-1.502,12.351-1.502c0.667,0,1.277,0.115,1.836,0.334
			c0.553,0.224,1.168,0.448,1.836,0.667c2.889,0.224,6.509,1.335,10.848,3.338c4.34,2.003,8.564,5.007,12.685,9.012
			c4.114,4.005,7.619,9.07,10.514,15.188c2.89,6.123,4.34,13.519,4.34,22.196c0,1.784-0.115,3.954-0.334,6.51
			c-0.225,2.561-0.448,4.73-0.668,6.509c5.117-2.003,10.457-4.449,16.022-7.344c5.56-2.89,10.958-5.951,16.188-9.179
			c5.227-3.224,10.066-6.51,14.521-9.848c4.448-3.338,8.011-6.342,10.681-9.012c2.222-2.003,4.115-3.114,5.675-3.338
			c1.554-0.22,2.67,0.224,3.338,1.335c0.668,1.116,0.777,2.67,0.334,4.673c-0.449,2.003-1.669,4.229-3.672,6.676
			c-1.116,1.335-3.953,4.006-8.512,8.011c-4.563,4.006-9.962,8.345-16.188,13.019c-6.232,4.673-13.019,9.236-20.361,13.686
			C1143.6,577.12,1136.59,580.458,1129.914,582.681z M1052.141,590.691c0,4.005,0.22,7.959,0.668,11.85
			c0.443,3.896,1.335,7.343,2.671,10.348c1.335,3.004,3.113,5.455,5.34,7.343c2.222,1.894,5.117,2.838,8.679,2.838
			c4.006,0,7.678-0.944,11.016-2.838c3.338-1.888,6.342-4.339,9.012-7.343c2.671-3.005,5.06-6.452,7.177-10.348
			c2.112-3.891,3.948-7.954,5.508-12.184c-1.56,0.225-3.062,0.392-4.507,0.501c-1.449,0.114-3.062,0.167-4.84,0.167
			c-8.459,0-15.745-2.504-21.863-7.511c-6.123-5.007-10.848-11.401-14.186-19.193c-1.335,4.674-2.451,9.237-3.338,13.686
			C1052.584,582.461,1052.141,586.686,1052.141,590.691z M1073.504,531.944c-0.668,2.003-1.002,4.12-1.002,6.342
			c0,3.562,0.22,7.291,0.668,11.182c0.443,3.896,1.554,7.401,3.338,10.515c1.778,3.119,4.615,5.731,8.512,7.844
			c3.891,2.118,9.289,3.172,16.188,3.172c1.111,0,2.222-0.053,3.338-0.167c1.111-0.11,2.222-0.276,3.338-0.501
			c0.668-2.89,1.278-5.508,1.836-7.844c0.553-2.337,0.835-4.392,0.835-6.176c0.443-4.225,0.443-8.563,0-13.018
			c-0.449-4.449-1.283-8.512-2.504-12.184c-1.226-3.672-2.785-6.676-4.673-9.012c-1.894-2.337-4.172-3.505-6.843-3.505
			c-4.229,0-8.293,1.168-12.184,3.505C1080.456,524.434,1076.842,527.72,1073.504,531.944z"/>
		<path d="M1152.946,634.084c-1.555,2.446-3.281,4.058-5.174,4.84c-1.889,0.777-3.558,0.887-5.007,0.334
			c-1.445-0.559-2.389-1.727-2.838-3.505c-0.443-1.778,0-4.006,1.335-6.676c0.668-1.335,2.17-4.339,4.507-9.013
			c2.336-4.673,5.121-10.29,8.345-16.856c3.229-6.561,6.733-13.686,10.515-21.362s7.396-14.963,10.848-21.863
			c3.447-6.895,6.618-13.07,9.513-18.525c2.89-5.45,5.008-9.398,6.343-11.85c-2.451-2.222-4.12-3.839-5.007-4.84
			c-0.893-1.001-1.56-3.171-2.003-6.509c-0.448-2.89,0.219-6.676,2.003-11.349c1.778-4.673,4.114-9.179,7.01-13.519
			c2.889-4.339,6.117-8.063,9.68-11.182c3.557-3.114,7.01-4.673,10.348-4.673c6.227,0,10.624,2.003,13.185,6.008
			c2.556,4.005,4.058,8.125,4.506,12.35c0.443,2.895,0.219,6.566-0.668,11.015c-0.892,4.454-2.561,8.459-5.007,12.016
			c0.668,0.449,1.555,0.949,2.671,1.503c1.11,0.558,2.89,0.834,5.341,0.834c3.557,0,6.061-0.219,7.51-0.668
			c1.445-0.442,3.724-0.667,6.843-0.667c3.781,0,6.896,0.949,9.347,2.837c2.445,1.894,4.448,4.229,6.008,7.01
			c1.555,2.785,2.723,5.789,3.505,9.013c0.777,3.229,1.277,6.175,1.502,8.845c0.668,5.565-0.782,11.35-4.339,17.357
			c-3.562,6.009-7.901,12.574-13.019,19.693c-3.118,4.454-6.232,9.461-9.346,15.021c-3.119,5.565-4.454,10.572-4.006,15.021
			c0.443,2.895,1.221,5.23,2.337,7.009c1.11,1.784,4.225,2.671,9.346,2.671c3.781,0,7.954-1.388,12.518-4.173
			c4.559-2.779,9.231-6.342,14.02-10.681c4.782-4.34,9.513-9.122,14.186-14.354c4.673-5.226,9.013-10.348,13.018-15.354
			c4.006-5.007,7.396-9.513,10.181-13.519c2.78-4.005,4.84-6.895,6.176-8.679c1.11-1.778,2.556-3.004,4.339-3.671
			c1.778-0.668,3.338-0.668,4.673,0c1.336,0.667,2.17,2.002,2.504,4.005s-0.501,4.673-2.504,8.011
			c-1.335,2.228-3.619,5.79-6.843,10.682c-3.228,4.897-7.124,10.348-11.683,16.355c-4.563,6.009-9.628,12.184-15.188,18.525
			c-5.564,6.343-11.406,12.132-17.523,17.357c-6.123,5.231-12.241,9.513-18.358,12.851c-6.123,3.338-11.965,5.007-17.524,5.007
			c-5.789,0-10.571-1.115-14.353-3.338c-3.787-2.227-6.843-4.954-9.18-8.178c-2.336-3.223-4.005-6.785-5.007-10.681
			c-1.001-3.891-1.393-7.511-1.168-10.849c0.219-2.67,0.943-5.508,2.17-8.512c1.22-3.004,2.67-6.117,4.339-9.346
			c1.669-3.224,3.447-6.452,5.341-9.681c1.888-3.223,3.614-6.394,5.174-9.513c3.781-6.451,6.843-11.959,9.179-16.522
			c2.337-4.559,3.505-8.396,3.505-11.516c0-2.003-0.448-3.781-1.335-5.341c-0.892-1.555-2.337-2.337-4.339-2.337
			c-1.336,0-2.285,0.058-2.838,0.167c-0.558,0.115-1.116,0.167-1.669,0.167c-0.558,0-1.335,0.058-2.336,0.167
			c-1.002,0.115-2.504,0.167-4.507,0.167c-2.895,0-5.341-0.443-7.343-1.335c-2.003-0.887-3.896-1.555-5.675-2.003
			c-0.892,1.56-2.895,4.897-6.008,10.014c-3.119,5.122-6.733,11.13-10.849,18.024c-4.12,6.9-8.46,14.134-13.018,21.696
			c-4.563,7.568-8.846,14.635-12.852,21.196c-4.005,6.566-7.396,12.131-10.181,16.689
			C1155.34,630.47,1153.613,633.197,1152.946,634.084z"/>
		<path d="M1476.723,562.319c1.554-1.778,3.171-2.723,4.84-2.838c1.669-0.109,3.004,0.334,4.005,1.336
			c1.002,1.001,1.445,2.503,1.336,4.506c-0.115,2.003-1.06,4.229-2.838,6.676c-4.229,5.789-9.127,11.74-14.687,17.857
			c-5.565,6.123-11.516,12.074-17.857,17.858c-6.343,5.789-12.742,11.239-19.193,16.355c-6.457,5.121-12.684,9.346-18.692,12.684
			c-6.676,3.781-12.298,5.675-16.856,5.675c-4.563,0-9.069-2.895-13.519-8.679c-4.005-5.116-5.956-10.624-5.841-16.522
			c0.109-5.894,1.387-13.294,3.838-22.197c1.555-5.56,3.725-12.184,6.509-19.86c2.78-7.677,5.007-15.072,6.677-22.197
			c1.669-7.119,2.169-13.185,1.502-18.191c-0.668-5.007-3.562-7.51-8.679-7.51c-3.562,0-7.401,1.226-11.516,3.671
			c-4.12,2.451-8.235,5.623-12.351,9.514c-4.12,3.896-8.068,8.292-11.85,13.185c-3.786,4.897-7.124,9.68-10.014,14.353
			c-1.784,8.679-3.562,17.248-5.341,25.702c-1.56,7.124-3.171,14.854-4.84,23.198s-3.286,15.746-4.84,22.197
			c-1.335,1.111-2.785,1.888-4.34,2.337c-1.559,0.443-3.004,0.667-4.339,0.667c-1.56,0-3.119-0.114-4.673-0.334
			c-1.784-0.448-3.453-1.115-5.007-2.002c-1.335-0.893-2.671-2.061-4.006-3.505c-1.335-1.445-2.336-3.391-3.004-5.842
			c10.014-41.166,17.91-74.211,23.699-99.136c5.784-24.919,10.232-43.945,13.352-57.078c3.557-15.573,6.008-26.369,7.344-32.377
			c0.667-4.225,1.22-8.345,1.669-12.351c0.443-3.557,0.667-7.229,0.667-11.015c0-3.781-0.334-7.229-1.001-10.347
			c1.778-1.111,3.724-2.003,5.841-2.67c2.112-0.667,4.173-1.22,6.176-1.669c2.445-0.667,4.892-1.221,7.343-1.669
			c2.446-0.443,4.673-0.667,6.676-0.667c1.778,0,3.447,0.167,5.007,0.5c1.555,0.334,2.556,1.059,3.005,2.17
			c1.335,1.116,1.945,3.338,1.835,6.676c-0.114,3.338-0.391,6.791-0.834,10.347c-0.892,4.23-1.894,8.793-3.004,13.686
			c-4.673,18.025-9.904,35.549-15.688,52.572c-5.789,17.023-11.13,35.215-16.021,54.575c2.889-4.449,6.342-9.013,10.347-13.686
			c4.006-4.673,8.397-8.955,13.186-12.851c4.782-3.891,9.847-7.119,15.188-9.68c5.34-2.556,11.015-3.839,17.022-3.839
			c3.114,0,6.061,0.501,8.846,1.502c2.78,1.001,5.227,2.67,7.344,5.007c2.112,2.337,3.724,5.456,4.84,9.346
			c1.11,3.896,1.554,8.736,1.335,14.521c0,3.562-0.391,7.233-1.168,11.015c-0.782,3.786-1.836,7.959-3.171,12.518
			c-1.335,4.563-3.062,9.627-5.174,15.188c-2.118,5.564-4.621,12.016-7.511,19.359c-2.003,5.122-3.562,9.461-4.673,13.018
			c-1.116,3.562-0.892,6.676,0.668,9.347c2.002,3.562,5.95,4.396,11.85,2.503c5.894-1.888,14.738-7.619,26.536-17.19
			c2.67-2.222,5.674-5.007,9.012-8.345s6.562-6.728,9.681-10.181c3.113-3.447,6.008-6.728,8.679-9.847
			C1472.717,566.549,1474.938,564.103,1476.723,562.319z"/>
		<path d="M1562.506,582.681c-2.227,8.459-5.23,16.355-9.012,23.698c-3.787,7.344-8.293,13.686-13.519,19.026
			c-5.231,5.341-11.13,9.513-17.691,12.518c-6.566,3.004-13.742,4.506-21.529,4.506c-9.127,0-16.304-1.95-21.529-5.841
			c-5.231-3.892-9.127-8.731-11.683-14.521c-2.562-5.784-4.115-12.126-4.674-19.026c-0.553-6.895-0.834-13.352-0.834-19.359
			c0-4.225,0.501-8.897,1.502-14.02c1.002-5.116,2.389-10.348,4.173-15.688c1.778-5.341,4.058-10.682,6.843-16.022
			c2.779-5.341,6.06-10.232,9.847-14.687c1.335-3.781,3.39-7.119,6.175-10.014c2.78-2.89,6.008-5.283,9.68-7.177
			c3.672-1.888,7.62-3.338,11.85-4.339c4.225-1.001,8.345-1.502,12.351-1.502c0.667,0,1.277,0.115,1.836,0.334
			c0.553,0.224,1.168,0.448,1.836,0.667c2.889,0.224,6.509,1.335,10.848,3.338c4.34,2.003,8.564,5.007,12.685,9.012
			c4.114,4.005,7.619,9.07,10.514,15.188c2.89,6.123,4.34,13.519,4.34,22.196c0,1.784-0.115,3.954-0.334,6.51
			c-0.225,2.561-0.448,4.73-0.668,6.509c5.117-2.003,10.457-4.449,16.022-7.344c5.56-2.89,10.958-5.951,16.188-9.179
			c5.227-3.224,10.066-6.51,14.521-9.848c4.448-3.338,8.011-6.342,10.681-9.012c2.222-2.003,4.115-3.114,5.675-3.338
			c1.554-0.22,2.67,0.224,3.338,1.335c0.668,1.116,0.777,2.67,0.334,4.673c-0.449,2.003-1.669,4.229-3.672,6.676
			c-1.116,1.335-3.953,4.006-8.512,8.011c-4.563,4.006-9.962,8.345-16.188,13.019c-6.232,4.673-13.019,9.236-20.361,13.686
			C1576.191,577.12,1569.182,580.458,1562.506,582.681z M1484.732,590.691c0,4.005,0.22,7.959,0.668,11.85
			c0.443,3.896,1.335,7.343,2.671,10.348c1.335,3.004,3.113,5.455,5.34,7.343c2.222,1.894,5.117,2.838,8.679,2.838
			c4.006,0,7.678-0.944,11.016-2.838c3.338-1.888,6.342-4.339,9.012-7.343c2.671-3.005,5.06-6.452,7.177-10.348
			c2.112-3.891,3.948-7.954,5.508-12.184c-1.56,0.225-3.062,0.392-4.507,0.501c-1.449,0.114-3.062,0.167-4.84,0.167
			c-8.459,0-15.745-2.504-21.863-7.511c-6.123-5.007-10.848-11.401-14.186-19.193c-1.335,4.674-2.451,9.237-3.338,13.686
			C1485.176,582.461,1484.732,586.686,1484.732,590.691z M1506.096,531.944c-0.668,2.003-1.002,4.12-1.002,6.342
			c0,3.562,0.22,7.291,0.668,11.182c0.443,3.896,1.554,7.401,3.338,10.515c1.778,3.119,4.615,5.731,8.512,7.844
			c3.891,2.118,9.289,3.172,16.188,3.172c1.111,0,2.222-0.053,3.338-0.167c1.111-0.11,2.222-0.276,3.338-0.501
			c0.668-2.89,1.278-5.508,1.836-7.844c0.553-2.337,0.835-4.392,0.835-6.176c0.443-4.225,0.443-8.563,0-13.018
			c-0.449-4.449-1.283-8.512-2.504-12.184c-1.226-3.672-2.785-6.676-4.673-9.012c-1.894-2.337-4.172-3.505-6.843-3.505
			c-4.229,0-8.293,1.168-12.184,3.505C1513.048,524.434,1509.434,527.72,1506.096,531.944z"/>
		<path d="M1645.286,624.404c1.335,0.892,3.057,1.335,5.174,1.335c2.112,0,4.225-0.443,6.342-1.335
			c2.112-0.887,4.115-2.112,6.009-3.672c1.888-1.555,3.28-3.557,4.172-6.008c0.887-2.446,0.887-5.951,0-10.515
			c-0.892-4.559-2.284-9.456-4.172-14.688c-1.894-5.226-3.954-10.514-6.176-15.854c-2.227-5.341-4.12-10.232-5.674-14.687
			c-1.336-3.338-2.451-6.452-3.338-9.347c-0.893-2.446-1.727-4.84-2.504-7.177c-0.782-2.336-1.393-3.947-1.836-4.84
			c-1.116,1.784-3.062,4.674-5.841,8.679c-2.785,4.006-5.789,8.178-9.013,12.518c-3.229,4.339-6.29,8.345-9.18,12.017
			c-2.895,3.671-4.896,6.175-6.008,7.51c-1.783,2.003-3.505,3.171-5.174,3.505s-3.062,0-4.172-1.001
			c-1.116-1.002-1.727-2.446-1.836-4.34c-0.115-1.888,0.72-4.172,2.503-6.843c1.335-1.778,3.338-4.615,6.009-8.512
			c2.67-3.891,5.34-7.896,8.011-12.016c2.67-4.115,5.116-7.787,7.344-11.016c2.222-3.223,3.447-5.174,3.671-5.841
			c0.443-1.779-0.167-4.115-1.836-7.01c-1.669-2.89-1.95-6.228-0.834-10.014c0.887-3.113,2.89-6.728,6.008-10.848
			c3.114-4.115,6.786-7.844,11.016-11.182c4.225-3.338,8.563-5.842,13.018-7.511c4.449-1.669,8.454-1.611,12.017,0.167
			c2.89,1.784,5.226,3.729,7.01,5.841c1.778,2.118,2.446,4.287,2.003,6.509c-0.449,1.116-1.116,2.561-2.003,4.339
			c-0.893,1.784-2.228,3.954-4.006,6.509c-1.783,2.561-4.339,5.841-7.677,9.846c0.667,5.122,1.611,9.795,2.837,14.02
			c1.221,4.229,2.389,7.901,3.505,11.016c1.335,3.786,2.779,7.233,4.339,10.347c2.003,4.006,4.115,8.126,6.343,12.351
			c2.222,4.229,4.224,8.402,6.008,12.518c1.778,4.12,3.224,7.958,4.339,11.516c1.111,3.562,1.445,6.566,1.002,9.012
			c-0.668,3.787-2.618,8.345-5.842,13.686c-3.229,5.341-7.233,10.515-12.017,15.521c-4.787,5.007-10.237,9.289-16.355,12.851
			c-6.123,3.558-12.517,5.341-19.192,5.341c-4.674,0-9.18-1.449-13.519-4.339c-4.34-2.895-8.012-6.29-11.016-10.181
			s-5.23-7.729-6.676-11.516c-1.45-3.781-1.616-6.676-0.501-8.679c1.336-2.671,2.556-4.782,3.672-6.342
			c1.111-1.555,2.78-3.338,5.007-5.341c0.887-0.668,2.003-1.445,3.338-2.337c1.111-0.667,2.671-1.335,4.674-2.003
			c2.002-0.667,4.339-1.444,7.009-2.336c2.222,6.899,4.225,12.298,6.009,16.188c1.778,3.896,3.223,6.958,4.339,9.18
			C1642.949,621.849,1644.17,623.518,1645.286,624.404z"/>
		<path d="M1890.623,562.319c1.554-1.778,3.171-2.723,4.84-2.838c1.669-0.109,3.004,0.334,4.005,1.336
			c1.002,1.001,1.445,2.503,1.336,4.506c-0.115,2.003-1.06,4.229-2.838,6.676c-4.229,5.789-9.127,11.74-14.687,17.857
			c-5.565,6.123-11.516,12.074-17.857,17.858c-6.343,5.789-12.742,11.239-19.193,16.355c-6.457,5.121-12.684,9.346-18.692,12.684
			c-6.676,3.781-12.298,5.675-16.856,5.675c-4.563,0-9.069-2.895-13.519-8.679c-4.005-5.116-5.956-10.624-5.841-16.522
			c0.109-5.894,1.387-13.294,3.838-22.197c1.555-5.56,3.725-12.184,6.509-19.86c2.78-7.677,5.007-15.072,6.677-22.197
			c1.669-7.119,2.169-13.185,1.502-18.191c-0.668-5.007-3.562-7.51-8.679-7.51c-3.562,0-7.401,1.226-11.516,3.671
			c-4.12,2.451-8.235,5.623-12.351,9.514c-4.12,3.896-8.068,8.292-11.85,13.185c-3.786,4.897-7.124,9.68-10.014,14.353
			c-1.784,8.679-3.562,17.248-5.341,25.702c-1.56,7.124-3.171,14.854-4.84,23.198s-3.286,15.746-4.84,22.197
			c-1.335,1.111-2.785,1.888-4.34,2.337c-1.559,0.443-3.004,0.667-4.339,0.667c-1.56,0-3.119-0.114-4.673-0.334
			c-1.784-0.448-3.453-1.115-5.007-2.002c-1.335-0.893-2.671-2.061-4.006-3.505c-1.335-1.445-2.336-3.391-3.004-5.842
			c10.014-41.166,17.91-74.211,23.699-99.136c5.784-24.919,10.232-43.945,13.352-57.078c3.557-15.573,6.008-26.369,7.344-32.377
			c0.667-4.225,1.22-8.345,1.669-12.351c0.443-3.557,0.667-7.229,0.667-11.015c0-3.781-0.334-7.229-1.001-10.347
			c1.778-1.111,3.724-2.003,5.841-2.67c2.112-0.667,4.173-1.22,6.176-1.669c2.445-0.667,4.892-1.221,7.343-1.669
			c2.446-0.443,4.673-0.667,6.676-0.667c1.778,0,3.447,0.167,5.007,0.5c1.555,0.334,2.556,1.059,3.005,2.17
			c1.335,1.116,1.945,3.338,1.835,6.676c-0.114,3.338-0.391,6.791-0.834,10.347c-0.892,4.23-1.894,8.793-3.004,13.686
			c-4.673,18.025-9.904,35.549-15.688,52.572c-5.789,17.023-11.13,35.215-16.021,54.575c2.889-4.449,6.342-9.013,10.347-13.686
			c4.006-4.673,8.397-8.955,13.186-12.851c4.782-3.891,9.847-7.119,15.188-9.68c5.34-2.556,11.015-3.839,17.022-3.839
			c3.114,0,6.061,0.501,8.846,1.502c2.78,1.001,5.227,2.67,7.344,5.007c2.112,2.337,3.724,5.456,4.84,9.346
			c1.11,3.896,1.554,8.736,1.335,14.521c0,3.562-0.391,7.233-1.168,11.015c-0.782,3.786-1.836,7.959-3.171,12.518
			c-1.335,4.563-3.062,9.627-5.174,15.188c-2.118,5.564-4.621,12.016-7.511,19.359c-2.003,5.122-3.562,9.461-4.673,13.018
			c-1.116,3.562-0.892,6.676,0.668,9.347c2.002,3.562,5.95,4.396,11.85,2.503c5.894-1.888,14.738-7.619,26.536-17.19
			c2.67-2.222,5.674-5.007,9.012-8.345s6.562-6.728,9.681-10.181c3.113-3.447,6.008-6.728,8.679-9.847
			C1886.617,566.549,1888.839,564.103,1890.623,562.319z"/>
	</g>
	<g>
		<g>
			<path d="M29.827,466.726l23.021,47.873c19.353,40.223,62.214,64.634,106.665,60.746c0,0,0,0,0.01,0
				c6.542-0.573,12.978-1.775,19.271-3.529c-2.948,17.161-13.801,52.949-29.93,59.36c-4.902,1.948-8.128,6.693-8.128,11.97
				c-0.01,5.276,3.202,10.026,8.111,11.982c9.389,3.757,18.98,5.237,28.516,4.405c27.276-2.388,47.737-23.104,59.254-38.27
				c4.007,3.102,7.784,5.865,11.112,8.097c2.458,14.66,2.896,23.403,2.641,28.577c-4.253-1.681-8.882-2.402-13.541-1.995
				c-16.468,1.441-28.694,16.017-27.252,32.492l3.404,38.919c1.441,16.474,16.013,28.697,32.48,27.255
				c10.781-0.941,19.956-7.599,24.434-16.939c71.361-16.648,101.082-88.417,100.831-124.304c1.161-1.122,2.345-2.322,3.532-3.549
				c14.036,12.854,37.496,29.214,64.404,26.86c0.01,0,0.005,0,0.013,0c9.531-0.839,18.721-3.96,27.314-9.29
				c4.492-2.772,6.828-8.011,5.909-13.207c-0.922-5.195-4.914-9.309-10.086-10.379c-17.348-3.592-34.492-37.975-40.075-54.065
				c-0.087-0.255-0.233-0.473-0.336-0.721c8.83,1.446,17.76,1.863,26.69,1.083c44.455-3.892,82.43-35.374,94.498-78.346
				l14.366-51.142c7.786-27.748,4.308-56.872-9.804-82.003c-14.118-25.13-37.172-43.262-64.924-51.058
				c-12.622-3.546-25.598-4.766-38.556-3.633c-30.474,2.667-57.86,18.34-75.977,41.764c-25.583-17.117-56.915-25.995-89.898-23.11
				c-31.293,2.739-59.297,15.625-81.063,35.13c-21.583-18.205-49.976-27.808-79.071-25.262c-12.962,1.134-25.526,4.59-37.342,10.274
				C26.697,348.499,4.048,413.101,29.827,466.726z M445.849,524.41c-5.695,0.498-11.397,0.319-17.054-0.375
				c7.05-23.926,1.345-87.111,0.665-94.292c-3.031-34.649-18.568-65.256-41.74-87.831c13.786-18.109,34.792-30.257,58.205-32.306
				c9.849-0.861,19.716,0.072,29.336,2.771c21.117,5.929,38.664,19.726,49.407,38.854c10.738,19.129,13.39,41.291,7.464,62.404
				l-14.366,51.145C508.581,497.482,479.681,521.446,445.849,524.41z M391.179,590.312c4.238-5.412,8.412-11.137,12.382-17.019
				c5.033,10.964,12.968,25.619,23.681,37.304C412.98,608.24,399.806,598.321,391.179,590.312z M190.723,535.606
				c-6.721-13.042-12.461-58.149-14.495-83.517c-5.497-62.831,41.079-118.337,103.817-123.824
				c62.733-5.488,118.239,41.084,123.728,103.818c2.403,25.438,4.585,70.867,0.232,84.864c-8.074,25.981-35.731,64.436-55.068,81.47
				c-3.284,2.896-4.88,7.253-4.229,11.585c2.669,17.839-17.999,92.194-87.013,103.83c-5.706,0.962-10.076,5.61-10.676,11.37
				c-0.18,1.692-1.539,3.521-3.795,3.718c-2.299,0.202-4.339-1.508-4.541-3.811l-3.405-38.92c-0.203-2.312,1.509-4.351,3.81-4.555
				c2.089-0.181,3.312,1.2,3.745,1.8c2.651,3.721,7.072,5.765,11.628,5.365c6.033-0.527,11.415-3.513,15.143-8.409
				c9.748-12.81,6.978-36.977,2.534-61.188c-0.675-3.666-2.9-6.861-6.109-8.765C247.454,599.441,203.91,561.18,190.723,535.606z
				 M184.096,631.886c8.804-13.8,14.141-30.227,17.154-41.989c5.109,5.148,10.366,10.147,15.578,14.826
				C209.804,614.241,198.292,626.94,184.096,631.886z M91.495,345.949c9.01-4.333,18.562-6.961,28.414-7.826
				c21.74-1.902,42.937,5.143,59.243,18.522c-20.7,26.858-31.806,61.227-28.624,97.59c0.574,7.153,6.001,71.312,17.27,93.18
				c0.083,0.161,0.191,0.327,0.274,0.488c-3.547,0.819-7.14,1.43-10.788,1.746c-33.836,2.962-66.458-15.619-81.187-46.233
				l-23.022-47.868C33.45,414.743,50.692,365.579,91.495,345.949z"/>
		</g>
		<g>
			<circle cx="366.735" cy="480.216" r="21.834"/>
		</g>
		<g>
			<circle cx="221.065" cy="492.961" r="21.836"/>
		</g>
	</g>
</g>
</svg>
